# xmcd
#
# Track frame offsets:
#	150
#	19352
#	31566
#	49875
#	65435
#	81248
#	99513
#	117618
#
# Disc length: 1769 seconds
# Revision: 0
# Processed by: cddbd v1.5.2PL0 Copyright (c) Steve Scherf et al.
# Submitted via: dBpowerAMP V12.0
#
DISCID=6506e708
DTITLE=WillHoge,Franklin,TN,thenNashville,TN - MyAmericanDream
DYEAR=2018
DGENRE=Country
TTITLE0=GildedWalls
TTITLE1=StupidKids
TTITLE2=StillaSouthernMan
TTITLE3=OhMisterBarnum
TTITLE4=ThoughtsAndPrayers
TTITLE5=MyAmericanDream
TTITLE6=IllegalLine,The
TTITLE7=Nikki'sARepublicanNow
EXTD=
EXTT0=
EXTT1=
EXTT2=
EXTT3=
EXTT4=
EXTT5=
EXTT6=
EXTT7=
PLAYORDER=
